<svg xmlns="http://www.w3.org/2000/svg" viewBox="0 0 192 192" fill="none">
  <rect width="192" height="192" rx="40" fill="#3B82F6"/>
  <path d="M96 40c-8 0-14 6-14 14v10H68c-6 0-10 4-10 10v8c0 4 2 7 5 9L42 104c-2 2-3 5-3 8v12c0 6 4 10 10 10h94c6 0 10-4 10-10v-12c0-3-1-6-3-8l-21-13c3-2 5-5 5-9v-8c0-6-4-10-10-10h-14V54c0-8-6-14-14-14z" fill="white"/>
  <circle cx="96" cy="70" r="6" fill="#3B82F6"/>
  <path d="M76 130c0 6-4 12-10 16-4 2-8 4-8 8 0 4 4 6 8 6h60c4 0 8-2 8-6 0-4-4-6-8-8-6-4-10-10-10-16" stroke="white" stroke-width="3" fill="none" stroke-linecap="round"/>
</svg>
