<svg xmlns="http://www.w3.org/2000/svg" viewBox="0 0 512 512" fill="none">
  <rect width="512" height="512" rx="100" fill="#3B82F6"/>
  <path d="M256 100c-24 0-42 18-42 42v28H180c-18 0-30 12-30 30v24c0 12 6 22 16 28L104 280c-6 6-10 16-10 26v36c0 18 12 30 30 30h264c18 0 30-12 30-30v-36c0-10-4-20-10-26l-62-38c8-6 14-16 14-28v-24c0-18-12-30-30-30h-34v-28c0-24-18-42-42-42z" fill="white"/>
  <circle cx="256" cy="200" r="18" fill="#3B82F6"/>
  <path d="M200 380c0 18-12 36-30 48-12 6-24 12-24 24 0 12 12 18 24 18h172c12 0 24-6 24-18 0-12-12-18-24-24-18-12-30-30-30-48" stroke="white" stroke-width="8" fill="none" stroke-linecap="round"/>
</svg>
